<svg width="39" height="30" viewBox="0 0 39 30" fill="none" xmlns="http://www.w3.org/2000/svg">
<path id="Vector" d="M36.3092 0.00363655C32.6396 0.211894 25.3459 0.969927 20.8432 3.72616C20.5325 3.91634 20.3564 4.25451 20.3564 4.60808V28.9743C20.3564 29.7477 21.2021 30.2365 21.9153 29.8776C26.5479 27.5459 33.2476 26.9098 36.5603 26.7356C37.6913 26.6761 38.5706 25.7694 38.5706 24.6825V2.05943C38.5712 0.873499 37.5427 -0.066006 36.3092 0.00363655ZM17.7274 3.72616C13.2254 0.969927 5.93167 0.212564 2.26204 0.00363655C1.02857 -0.066006 0 0.873499 0 2.05943V24.6832C0 25.7707 0.879237 26.6774 2.01026 26.7363C5.3243 26.9104 12.0274 27.5473 16.66 29.8803C17.3711 30.2385 18.2142 29.7504 18.2142 28.9789V4.59603C18.2142 4.24179 18.0388 3.91701 17.7274 3.72616Z" fill="#8B8B8B"/>
</svg>
