<svg width="30" height="30" viewBox="0 0 30 30" fill="none" xmlns="http://www.w3.org/2000/svg">
<g id="like">
<circle id="Ellipse 7" cx="15" cy="15" r="14.5" fill="white" stroke="#00849D"/>
<path id="Vector" d="M10.25 14H7.75C7.33578 14 7 14.3358 7 14.75V22.25C7 22.6642 7.33578 23 7.75 23H10.25C10.6642 23 11 22.6642 11 22.25V14.75C11 14.3358 10.6642 14 10.25 14ZM9 21.75C8.58578 21.75 8.25 21.4142 8.25 21C8.25 20.5858 8.58578 20.25 9 20.25C9.41422 20.25 9.75 20.5858 9.75 21C9.75 21.4142 9.41422 21.75 9 21.75ZM19 9.54538C19 10.8709 18.1884 11.6144 17.9601 12.5H21.1389C22.1826 12.5 22.9951 13.3671 23 14.3156C23.0026 14.8761 22.7642 15.4796 22.3925 15.853L22.3891 15.8564C22.6964 16.5857 22.6465 17.6076 22.0982 18.3398C22.3695 19.149 22.096 20.1431 21.5863 20.676C21.7206 21.2259 21.6564 21.6939 21.3941 22.0707C20.7563 22.9871 19.1755 23 17.8387 23L17.7498 23C16.2409 22.9994 15.0059 22.45 14.0136 22.0086C13.5149 21.7867 12.8629 21.5121 12.3682 21.503C12.1638 21.4993 12 21.3325 12 21.1281V14.4478C12 14.3478 12.0401 14.2518 12.1112 14.1815C13.3491 12.9582 13.8814 11.6631 14.8961 10.6467C15.3587 10.1832 15.527 9.48312 15.6896 8.80606C15.8286 8.22791 16.1193 7 16.75 7C17.5 7 19 7.25 19 9.54538Z" fill="#00849D"/>
</g>
</svg>
