<svg width="33" height="30" viewBox="0 0 33 30" fill="none" xmlns="http://www.w3.org/2000/svg">
<path id="Vector" d="M15.7715 14.6784C16.1725 15.112 16.8256 15.112 17.2324 14.6784L23.4711 7.98725C25.2814 6.04202 25.1783 2.8195 23.1503 1.02661C21.3858 -0.537777 18.7563 -0.256539 17.1407 1.47776L16.4991 2.16328L15.8632 1.48362C14.2477 -0.256539 11.6181 -0.537777 9.85362 1.02661C7.83134 2.8195 7.72249 6.04202 9.53281 7.98725L15.7715 14.6784ZM32.3852 19.2251C31.7092 18.5981 30.6551 18.6392 29.9447 19.2251L24.6512 23.555C24.0039 24.0881 23.1961 24.3752 22.3597 24.3752H15.5825C15.0783 24.3752 14.6659 23.9534 14.6659 23.4378C14.6659 22.9222 15.0783 22.5003 15.5825 22.5003H20.0682C20.979 22.5003 21.8269 21.8617 21.9759 20.9418C22.1649 19.77 21.2827 18.7505 20.1656 18.7505H10.9994C9.4526 18.7505 7.95737 19.2954 6.75431 20.2914L4.0904 22.5003H0.916616C0.412477 22.5003 0 22.9222 0 23.4378V29.0625C0 29.5781 0.412477 30 0.916616 30H21.3572C22.1878 30 22.9956 29.7129 23.6487 29.1797L32.3107 22.0902C33.1815 21.3812 33.2502 20.0219 32.3852 19.2251Z" fill="#8B8B8B"/>
</svg>
