<svg width="39" height="30" viewBox="0 0 39 30" fill="none" xmlns="http://www.w3.org/2000/svg">
<path id="Vector" d="M18.7779 7.78279L6.43029 17.9524V28.9285C6.43029 29.2126 6.54319 29.4852 6.74414 29.6862C6.9451 29.8871 7.21765 30 7.50184 30L15.0067 29.9806C15.29 29.9792 15.5611 29.8656 15.7609 29.6648C15.9607 29.464 16.0729 29.1923 16.0729 28.909V22.4992C16.0729 22.215 16.1858 21.9424 16.3867 21.7415C16.5877 21.5405 16.8602 21.4276 17.1444 21.4276H21.4306C21.7148 21.4276 21.9874 21.5405 22.1883 21.7415C22.3893 21.9424 22.5022 22.215 22.5022 22.4992V28.9043C22.5017 29.0453 22.5291 29.185 22.5828 29.3154C22.6364 29.4458 22.7153 29.5643 22.8148 29.6642C22.9144 29.7641 23.0327 29.8433 23.1629 29.8974C23.2931 29.9514 23.4327 29.9792 23.5737 29.9792L31.0759 30C31.3601 30 31.6326 29.8871 31.8336 29.6862C32.0346 29.4852 32.1474 29.2126 32.1474 28.9285V17.9451L19.8025 7.78279C19.6574 7.6658 19.4766 7.60201 19.2902 7.60201C19.1038 7.60201 18.923 7.6658 18.7779 7.78279ZM38.2821 14.6949L32.6832 10.0799V0.803661C32.6832 0.590517 32.5985 0.386103 32.4478 0.235387C32.2971 0.0846713 32.0927 0 31.8796 0H28.1291C27.916 0 27.7116 0.0846713 27.5609 0.235387C27.4102 0.386103 27.3255 0.590517 27.3255 0.803661V5.66648L21.3295 0.733341C20.7541 0.259836 20.032 0.000946542 19.2869 0.000946542C18.5417 0.000946542 17.8196 0.259836 17.2442 0.733341L0.291661 14.6949C0.210282 14.7622 0.142954 14.8448 0.0935233 14.9381C0.0440928 15.0314 0.0135288 15.1335 0.00357774 15.2387C-0.00637334 15.3438 0.00448353 15.4498 0.035528 15.5507C0.0665725 15.6516 0.117196 15.7454 0.184506 15.8268L1.89229 17.9029C1.95941 17.9845 2.04198 18.0521 2.13526 18.1018C2.22854 18.1514 2.3307 18.1822 2.43589 18.1924C2.54108 18.2025 2.64724 18.1918 2.74829 18.1609C2.84934 18.1299 2.9433 18.0794 3.02478 18.0121L18.7779 5.03695C18.923 4.91996 19.1038 4.85617 19.2902 4.85617C19.4766 4.85617 19.6574 4.91996 19.8025 5.03695L35.5563 18.0121C35.6377 18.0794 35.7315 18.13 35.8324 18.161C35.9333 18.1921 36.0393 18.2029 36.1444 18.193C36.2495 18.183 36.3517 18.1525 36.4449 18.103C36.5382 18.0536 36.6209 17.9863 36.6881 17.9049L38.3959 15.8288C38.4632 15.747 38.5136 15.6527 38.5442 15.5513C38.5749 15.45 38.5853 15.3436 38.5747 15.2382C38.5641 15.1328 38.5328 15.0306 38.4826 14.9374C38.4324 14.8441 38.3642 14.7617 38.2821 14.6949Z" fill="#8B8B8B"/>
</svg>
