<svg width="30" height="30" viewBox="0 0 30 30" fill="none" xmlns="http://www.w3.org/2000/svg">
<path id="Vector" d="M20.625 5.625C20.625 2.51836 18.1066 0 15 0C11.8934 0 9.375 2.51836 9.375 5.625C9.375 8.73164 11.8934 11.25 15 11.25C18.1066 11.25 20.625 8.73164 20.625 5.625ZM13.6869 14.127C10.2105 11.9988 4.57969 11.4141 1.74609 11.2529C0.793945 11.199 0 11.9244 0 12.8402V25.8949C0 26.7346 0.679102 27.4348 1.55215 27.4799C4.11035 27.6141 9.28594 28.1057 12.8631 29.9074C13.4121 30.184 14.0631 29.8072 14.0631 29.2119V14.7984C14.0625 14.5248 13.9271 14.274 13.6869 14.127ZM28.2539 11.2529C25.4209 11.4135 19.7895 11.9988 16.3137 14.127C16.0734 14.274 15.9381 14.5348 15.9381 14.8084V29.2102C15.9381 29.8072 16.5908 30.1846 17.1416 29.9074C20.7182 28.1074 25.8908 27.6158 28.4484 27.4816C29.3215 27.4359 30.0006 26.7357 30.0006 25.8961V12.8402C30 11.9244 29.2061 11.199 28.2539 11.2529Z" fill="#8B8B8B"/>
</svg>
