<svg width="30" height="30" viewBox="0 0 30 30" fill="none" xmlns="http://www.w3.org/2000/svg">
<g id="Group 25597">
<circle id="Ellipse 8" cx="15" cy="15" r="14.5" fill="white" stroke="#00849D"/>
<path id="Vector" d="M7 8.75V16.25C7 16.6642 7.33578 17 7.75 17H10.25C10.6642 17 11 16.6642 11 16.25V8.75C11 8.33578 10.6642 8 10.25 8H7.75C7.33578 8 7 8.33578 7 8.75ZM8.25 15C8.25 14.5858 8.58578 14.25 9 14.25C9.41422 14.25 9.75 14.5858 9.75 15C9.75 15.4142 9.41422 15.75 9 15.75C8.58578 15.75 8.25 15.4142 8.25 15ZM16.75 23C16.1193 23 15.8286 21.7721 15.6896 21.1939C15.527 20.5168 15.3587 19.8167 14.8961 19.3532C13.8815 18.3368 13.3491 17.0417 12.1112 15.8185C12.076 15.7837 12.048 15.7422 12.0289 15.6965C12.0098 15.6508 12 15.6017 12 15.5522V8.8719C12 8.6675 12.1639 8.50072 12.3682 8.49697C12.863 8.4879 13.5149 8.21325 14.0136 7.9914C15.0059 7.54994 16.2409 7.00053 17.7498 7H17.8387C19.1755 7 20.7563 7.01291 21.3941 7.92928C21.6564 8.30606 21.7206 8.77409 21.5863 9.32403C22.096 9.85693 22.3695 10.851 22.0982 11.6602C22.6464 12.3924 22.6964 13.4143 22.3891 14.1436L22.3925 14.147C22.7642 14.5204 23.0026 15.1239 23 15.6844C22.9951 16.6329 22.1826 17.5 21.139 17.5H17.9601C18.1884 18.3856 19 19.1291 19 20.4546C19 22.75 17.5 23 16.75 23Z" fill="#00849D"/>
</g>
</svg>
